<svg width="200" height="60" viewBox="0 0 200 60" fill="none" xmlns="http://www.w3.org/2000/svg">
  <!-- Feather -->
  <path class="feather" d="M15 15C15 15 18 12 22 15C26 18 25 25 22 30C19 35 15 40 12 45C10 48 8 50 6 52C4 54 2 55 0 55C2 53 4 51 6 49C8 47 10 45 12 42C14 39 16 36 18 33C20 30 22 27 24 24C26 21 28 18 30 15C32 12 34 9 36 6C38 3 40 0 42 0C44 0 46 3 48 6C50 9 52 12 54 15C56 18 58 21 60 24C62 27 64 30 66 33C68 36 70 39 72 42C74 45 76 47 78 49C80 51 82 53 84 55C82 55 80 54 78 52C76 50 74 48 72 45C70 42 68 39 66 36C64 33 62 30 60 27C58 24 56 21 54 18C52 15 50 12 48 9C46 6 44 3 42 0" 
        fill="#7C3AED" 
        stroke="#7C3AED" 
        stroke-width="1"/>
  
  <!-- Ink Dots -->
  <circle class="dots" cx="25" cy="35" r="2" fill="#7C3AED"/>
  <circle class="dots" cx="28" cy="37" r="1.5" fill="#7C3AED"/>
  <circle class="dots" cx="31" cy="39" r="1" fill="#7C3AED"/>
  
  <!-- Experience Text -->
  <text class="text" x="45" y="35" font-family="Arial, sans-serif" font-size="24" font-weight="600" fill="#000000">
    Experience
  </text>
</svg>
